<svg xmlns="http://www.w3.org/2000/svg" width="800" height="800" viewBox="0 0 800 800">
  <rect width="800" height="800" fill="#F5E8EE"/>
  <rect x="36" y="36" width="728" height="728" fill="none" stroke="#E0C0D0" stroke-width="1.5"/>
  <circle cx="56" cy="56" r="3.5" fill="#C890A8"/>
  <circle cx="744" cy="56" r="3.5" fill="#C890A8"/>
  <circle cx="56" cy="744" r="3.5" fill="#C890A8"/>
  <circle cx="744" cy="744" r="3.5" fill="#C890A8"/>

  <!-- album / book shape -->
  <rect x="275" y="148" width="250" height="200" fill="white" rx="8" opacity="0.85"/>
  <!-- album spine -->
  <rect x="275" y="148" width="24" height="200" fill="#E0C0D0" rx="8" opacity="0.7"/>
  <!-- photo placeholders inside album -->
  <rect x="316" y="168" width="90" height="70" fill="#F0D8E4" rx="4" opacity="0.7"/>
  <rect x="416" y="168" width="90" height="70" fill="#EDD0DC" rx="4" opacity="0.7"/>
  <rect x="316" y="250" width="90" height="70" fill="#EDD8E8" rx="4" opacity="0.7"/>
  <rect x="416" y="250" width="90" height="70" fill="#F0D0E0" rx="4" opacity="0.7"/>
  <!-- small heart -->
  <text x="530" y="190" font-size="30" text-anchor="middle" fill="#E090B0" opacity="0.6" font-family="serif">♡</text>
  <!-- small star -->
  <text x="255" y="195" font-size="24" text-anchor="middle" fill="#D8A0C0" opacity="0.5" font-family="serif">✦</text>

  <text x="400" y="420" font-family="Georgia,'Times New Roman',serif" font-size="52" fill="#1A1A18" text-anchor="middle" font-style="italic">Álbum de</text>
  <text x="400" y="484" font-family="Georgia,'Times New Roman',serif" font-size="52" fill="#1A1A18" text-anchor="middle" font-style="italic">recuerdos</text>

  <line x1="320" y1="532" x2="480" y2="532" stroke="#C890A8" stroke-width="1.5"/>

  <text x="400" y="580" font-family="Arial,Helvetica,sans-serif" font-size="15" fill="#9A7080" text-anchor="middle" letter-spacing="6">ÁLBUMES</text>

  <text x="400" y="730" font-family="Georgia,'Times New Roman',serif" font-size="22" fill="#C4A882" text-anchor="middle" font-style="italic">Irida Studio</text>
</svg>
