<svg xmlns="http://www.w3.org/2000/svg" width="800" height="800" viewBox="0 0 800 800">
  <rect width="800" height="800" fill="#F0E8DC"/>
  <rect x="36" y="36" width="728" height="728" fill="none" stroke="#D8C8B0" stroke-width="1.5"/>
  <circle cx="56" cy="56" r="3.5" fill="#B89870"/>
  <circle cx="744" cy="56" r="3.5" fill="#B89870"/>
  <circle cx="56" cy="744" r="3.5" fill="#B89870"/>
  <circle cx="744" cy="744" r="3.5" fill="#B89870"/>

  <!-- hang tag shapes -->
  <!-- tag 1 -->
  <rect x="290" y="150" width="80" height="120" fill="white" rx="6" opacity="0.9"/>
  <circle cx="330" cy="168" r="7" fill="none" stroke="#C8B098" stroke-width="2"/>
  <line x1="330" y1="148" x2="330" y2="161" stroke="#C8B098" stroke-width="2"/>
  <line x1="302" y1="205" x2="358" y2="205" stroke="#D8C8B0" stroke-width="1.5"/>
  <line x1="302" y1="222" x2="358" y2="222" stroke="#D8C8B0" stroke-width="1.5"/>
  <line x1="302" y1="239" x2="345" y2="239" stroke="#D8C8B0" stroke-width="1.5"/>

  <!-- tag 2 (overlapping) -->
  <rect x="370" y="140" width="80" height="120" fill="#F8F0E8" rx="6" opacity="0.9"/>
  <circle cx="410" cy="158" r="7" fill="none" stroke="#C8B098" stroke-width="2"/>
  <line x1="410" y1="138" x2="410" y2="151" stroke="#C8B098" stroke-width="2"/>
  <line x1="382" y1="195" x2="438" y2="195" stroke="#D8C8B0" stroke-width="1.5"/>
  <line x1="382" y1="212" x2="438" y2="212" stroke="#D8C8B0" stroke-width="1.5"/>
  <line x1="382" y1="229" x2="425" y2="229" stroke="#D8C8B0" stroke-width="1.5"/>

  <text x="400" y="380" font-family="Georgia,'Times New Roman',serif" font-size="60" fill="#1A1A18" text-anchor="middle" font-style="italic">Tags ropa</text>

  <line x1="310" y1="436" x2="490" y2="436" stroke="#B89870" stroke-width="1.5"/>

  <text x="400" y="484" font-family="Arial,Helvetica,sans-serif" font-size="15" fill="#8A7860" text-anchor="middle" letter-spacing="6">EMPRENDIMIENTO</text>

  <text x="400" y="580" font-family="Georgia,'Times New Roman',serif" font-size="28" fill="#C8B090" text-anchor="middle">Pack × 50 unidades</text>

  <text x="400" y="730" font-family="Georgia,'Times New Roman',serif" font-size="22" fill="#C4A882" text-anchor="middle" font-style="italic">Irida Studio</text>
</svg>
